<svg width="200" height="200" fill="#4d4848" xmlns="http://www.w3.org/2000/svg">
    <path d="M160.609 37.6483C160.609 38.7719 160.147 39.8495 159.326 40.644C158.505 41.4386 157.392 41.8849 156.231 41.8849C155.07 41.8849 153.956 41.4386 153.135 40.644C152.314 39.8495 151.853 38.7719 151.853 37.6483C151.853 36.5247 152.314 35.4471 153.135 34.6526C153.956 33.858 155.07 33.4117 156.231 33.4117C157.392 33.4117 158.505 33.858 159.326 34.6526C160.147 35.4471 160.609 36.5247 160.609 37.6483Z" />
    <path d="M168.489 22.9049C168.489 18.1599 172.516 14.4317 177.244 14.4317C181.972 14.4317 186 18.3294 186 22.9049C186 27.4805 181.972 31.3782 177.244 31.3782C172.516 31.3782 168.489 27.65 168.489 22.9049ZM173.742 22.9049C173.742 24.7691 175.318 26.2942 177.244 26.2942C179.171 26.2942 180.747 24.7691 180.747 22.9049C180.747 21.0408 179.171 19.5156 177.244 19.5156C175.318 19.5156 173.742 21.0408 173.742 22.9049Z" />
    <path d="M101.419 15.2783C82.8568 15.2783 67.6239 30.0231 67.6239 47.9863C67.6239 52.3433 68.5357 56.5019 70.1583 60.3156C69.6756 60.0859 69.184 59.8669 68.6739 59.6801C68.4988 59.6801 68.5002 59.6774 68.3251 59.508C67.7997 59.3385 67.273 59.171 66.9228 59.0016C66.7477 59.0016 66.5712 59.0022 66.3961 58.8328C65.8707 58.6633 65.5226 58.6613 64.9972 58.4918H64.4705C63.7701 58.4918 63.2454 58.323 62.5449 58.323H62.3705H48.0092C46.6082 58.323 45.3824 59.5093 45.3824 60.865V78.1491V88.6579V108.484C45.3824 109.84 46.6082 111.026 48.0092 111.026H62.3705H62.5449C63.2454 111.026 63.9452 111.027 64.4705 110.857H64.9972C65.5226 110.857 65.8707 110.689 66.3961 110.52C66.5131 110.52 66.6313 110.497 66.7484 110.447V113.909C66.7484 122.246 70.9885 129.584 77.4296 134.139V161.508C77.2151 161.872 77.0807 162.281 77.0807 162.713V177.458C77.0807 178.814 78.3065 180 79.7074 180H107.024H110C110.876 180 111.578 179.658 112.103 178.981C112.629 178.303 112.627 177.458 112.452 176.611L107.199 161.865C106.849 160.849 105.797 160.171 104.747 160.171H103.697V136.542C107.463 134.799 110.717 132.184 113.225 128.979C117.792 130.421 123.043 129.417 126.636 125.94C131.714 121.026 131.714 112.892 126.636 107.978L118.581 100.183V90.1837C118.581 85.667 117.331 81.4548 115.185 77.8049C126.948 72.6684 135.217 61.2106 135.217 47.9863C135.217 29.8536 119.981 15.2783 101.419 15.2783ZM101.419 20.3623C104.594 20.3623 107.636 20.8855 110.489 21.812L95.8336 51.8953C95.4285 51.8117 95.0177 51.7427 94.5921 51.7132C89.6889 51.2049 85.6606 54.763 85.1353 59.508C84.6099 64.253 88.2866 68.3208 93.1898 68.6597C96.6911 68.9017 99.8069 67.1401 101.446 64.4562L117.747 70.6225C113.117 73.7556 107.495 75.6071 101.419 75.6071C85.6586 75.6071 72.8773 63.2382 72.8773 47.9863C72.8773 32.7345 85.6586 20.3623 101.419 20.3623ZM116.539 25.3899C117.064 25.3969 117.595 25.5329 118.055 25.7871C122.608 28.8375 125.937 33.0721 127.864 38.1561C128.389 39.5118 127.688 40.8682 126.287 41.3766C125.937 41.546 125.587 41.5454 125.237 41.5454C124.186 41.5454 123.309 40.8675 122.959 39.8507C121.383 35.7836 118.756 32.3962 115.079 30.0237C113.853 29.1764 113.677 27.6486 114.378 26.4623C114.816 25.7209 115.666 25.3784 116.539 25.3899ZM94.2398 56.6284C96.1661 56.7979 97.7428 58.4912 97.5677 60.3553C97.3926 62.2194 95.6428 63.7452 93.7165 63.5758C91.7903 63.4063 90.2136 61.713 90.3887 59.8489C90.5638 57.9848 92.3136 56.4589 94.2398 56.6284ZM50.6359 63.0694H62.3705H62.8938C63.5943 63.0694 64.2975 63.2382 64.8228 63.2382H64.9972C65.6977 63.4076 66.223 63.5751 66.7484 63.7446H66.9228C67.4481 63.914 68.1486 64.253 68.6739 64.5919C69.1993 64.9308 69.7253 65.2718 70.2506 65.7801C72.7022 67.8137 74.2762 70.8641 74.2762 74.2534V77.4739V88.6579V94.4204C74.2762 97.8097 72.7022 100.86 70.2506 102.894C69.7253 103.402 69.1993 103.74 68.6739 104.079C68.1486 104.417 67.6232 104.756 66.9228 104.926H66.7484C66.223 105.095 65.5226 105.266 64.9972 105.436H64.8228C64.1223 105.605 63.4191 105.604 62.8938 105.604H62.3705H50.6359V88.317V77.8115V63.0694V63.0694ZM80.9866 73.9323C86.6787 78.1497 93.7531 80.6911 101.419 80.6911C104.366 80.6911 107.217 80.283 109.949 79.5856C112.021 82.6983 113.265 86.3855 113.328 90.3525V95.0956L105.273 87.3009C100.195 82.3864 91.7903 82.3864 86.712 87.3009C81.6337 92.2153 81.6337 100.349 86.712 105.263L108.074 125.94C108.298 126.156 108.533 126.352 108.769 126.549C104.98 131.126 99.1726 134.072 92.6631 134.072C81.2807 134.072 72.0018 125.093 72.0018 114.078V107.971C76.5181 104.991 79.5296 99.8994 79.5296 94.2482V88.4891V77.9803V74.9716C79.9939 74.5988 80.4887 74.2637 80.9866 73.9323ZM95.991 88.7009C98.0048 88.7009 100.021 89.4185 101.597 90.859L122.959 111.536C126.111 114.586 126.111 119.332 122.959 122.382C119.807 125.432 114.903 125.432 111.751 122.382L90.3887 101.705C87.2366 98.655 87.2366 93.9093 90.3887 90.859C91.9647 89.4185 93.9772 88.7009 95.991 88.7009ZM82.683 137.041C85.763 138.293 89.1375 138.988 92.6631 138.988C94.6524 138.988 96.5814 138.749 98.4432 138.332V160.171H82.683V137.041ZM82.3341 165.255H102.821L106.323 174.916H85.3097H82.3341V165.255Z" />
    <path d="M149.199 0C148.676 0.00012066 148.165 0.15117 147.732 0.433824C147.298 0.716479 146.962 1.11788 146.765 1.58668C146.569 2.05547 146.521 2.57034 146.629 3.0654C146.736 3.56046 146.994 4.01321 147.369 4.3657L149.89 6.80507L147.369 9.24444C147.117 9.47868 146.916 9.75923 146.777 10.0697C146.638 10.3801 146.565 10.7142 146.562 11.0524C146.558 11.3905 146.624 11.726 146.756 12.0391C146.889 12.3522 147.084 12.6366 147.331 12.8757C147.578 13.1149 147.872 13.3039 148.196 13.4317C148.519 13.5596 148.866 13.6236 149.215 13.6202C149.565 13.6168 149.91 13.5459 150.231 13.4118C150.551 13.2776 150.841 13.0829 151.083 12.8389L153.604 10.3996L156.125 12.8389C156.367 13.0829 156.657 13.2776 156.977 13.4118C157.298 13.5459 157.643 13.6168 157.993 13.6202C158.342 13.6236 158.689 13.5596 159.012 13.4317C159.336 13.3039 159.63 13.1149 159.877 12.8757C160.124 12.6366 160.319 12.3522 160.452 12.0391C160.584 11.726 160.65 11.3905 160.646 11.0524C160.643 10.7142 160.57 10.3801 160.431 10.0697C160.292 9.75923 160.091 9.47868 159.839 9.24444L157.318 6.80507L159.839 4.3657C160.218 4.00855 160.477 3.549 160.581 3.0472C160.686 2.54541 160.631 2.02474 160.425 1.55335C160.219 1.08195 159.871 0.681784 159.425 0.405219C158.98 0.128653 158.459 -0.011429 157.931 0.00330986C157.248 0.0225493 156.601 0.297947 156.125 0.771197L153.604 3.21056L151.083 0.771197C150.838 0.527192 150.546 0.333212 150.222 0.200744C149.898 0.0682765 149.55 1.39748e-05 149.199 0Z" />
    <path d="M32.7346 28.7991C32.0385 28.8096 31.3753 29.0871 30.8905 29.5705C30.4056 30.054 30.1389 30.7038 30.1489 31.3775V34.7668H26.6467C26.2986 34.762 25.953 34.8242 25.63 34.9498C25.307 35.0754 25.013 35.2619 24.7651 35.4984C24.5173 35.735 24.3204 36.0168 24.1861 36.3276C24.0517 36.6383 23.9825 36.9718 23.9825 37.3087C23.9825 37.6456 24.0517 37.9791 24.1861 38.2899C24.3204 38.6007 24.5173 38.8825 24.7651 39.119C25.013 39.3555 25.307 39.542 25.63 39.6676C25.953 39.7932 26.2986 39.8555 26.6467 39.8507H30.1489V43.24C30.144 43.5768 30.2083 43.9113 30.3381 44.2238C30.4679 44.5364 30.6606 44.8209 30.905 45.0608C31.1494 45.3007 31.4406 45.4912 31.7618 45.6212C32.0829 45.7512 32.4275 45.8182 32.7756 45.8182C33.1237 45.8182 33.4684 45.7512 33.7895 45.6212C34.1106 45.4912 34.4019 45.3007 34.6463 45.0608C34.8907 44.8209 35.0834 44.5364 35.2132 44.2238C35.343 43.9113 35.4073 43.5768 35.4023 43.24V39.8507H38.9046C39.2527 39.8555 39.5983 39.7932 39.9213 39.6676C40.2443 39.542 40.5382 39.3555 40.7861 39.119C41.034 38.8825 41.2308 38.6007 41.3652 38.2899C41.4995 37.9791 41.5687 37.6456 41.5687 37.3087C41.5687 36.9718 41.4995 36.6383 41.3652 36.3276C41.2308 36.0168 41.034 35.735 40.7861 35.4984C40.5382 35.2619 40.2443 35.0754 39.9213 34.9498C39.5983 34.8242 39.2527 34.762 38.9046 34.7668H35.4023V31.3775C35.4074 31.0372 35.3418 30.6995 35.2095 30.3842C35.0771 30.069 34.8808 29.7827 34.632 29.5422C34.3832 29.3018 34.0871 29.1121 33.7612 28.9844C33.4352 28.8568 33.0862 28.7938 32.7346 28.7991Z"/>
</svg>
